NotoMono-Condensed.ufo
<glyph name="uni0197" format="2">
  <advance width="500"/>
  <unicode hex="0197"/>
  <anchor x="250" y="0" name="bottom"/>
  <anchor x="250" y="714" name="top"/>
  <anchor x="316" y="10" name="ogonek"/>
  <anchor x="20" y="714" name="topleft"/>
  <anchor x="480" y="714" name="topright"/>
  <outline>
    <contour>
      <point x="80" y="333" type="line"/>
      <point x="421" y="333" type="line"/>
      <point x="421" y="406" type="line"/>
      <point x="80" y="406" type="line"/>
    </contour>
    <component base="I"/>
  </outline>
</glyph>
<glyph name="uni0473" format="2">
  <advance width="500"/>
  <unicode hex="0473"/>
  <anchor x="250" y="0" name="bottom"/>
  <anchor x="250" y="536" name="top"/>
  <anchor x="250" y="268" name="center"/>
  <anchor x="250" y="10" name="ogonek"/>
  <anchor x="480" y="536" name="topright"/>
  <outline>
    <contour>
      <point x="70" y="235" type="line"/>
      <point x="428" y="235" type="line"/>
      <point x="428" y="313" type="line"/>
      <point x="70" y="313" type="line"/>
    </contour>
    <component base="o"/>
  </outline>
</glyph>
<glyph name="uni048A" format="2">
  <advance width="500"/>
  <unicode hex="048A"/>
  <anchor x="252" y="-193" name="bottom"/>
  <anchor x="250" y="902" name="top"/>
  <anchor x="480" y="0" name="bottomright"/>
  <outline>
    <contour>
      <point x="353" y="-193" type="line"/>
      <point x="439" y="-193" type="line"/>
      <point x="500" y="74" type="line"/>
      <point x="399" y="74" type="line"/>
      <point x="399" y="0" type="line"/>
      <point x="410" y="0" type="line"/>
    </contour>
    <component base="afii10026"/>
    <component base="breve" yOffset="161"/>
  </outline>
</glyph>
<glyph name="uni0496" format="2">
  <advance width="500"/>
  <unicode hex="0496"/>
  <anchor x="250" y="-193" name="bottom"/>
  <anchor x="250" y="714" name="top"/>
  <anchor x="480" y="0" name="bottomright"/>
  <outline>
    <contour>
      <point x="426" y="-193" type="line"/>
      <point x="502" y="-193" type="line"/>
      <point x="502" y="76" type="line"/>
      <point x="434" y="76" type="line"/>
      <point x="426" y="0" type="line"/>
    </contour>
    <component base="afii10024"/>
  </outline>
</glyph>
<glyph name="uni0497" format="2">
  <advance width="500"/>
  <unicode hex="0497"/>
  <anchor x="250" y="-187" name="bottom"/>
  <anchor x="250" y="536" name="top"/>
  <anchor x="480" y="0" name="bottomright"/>
  <outline>
    <contour>
      <point x="421" y="-187" type="line"/>
      <point x="500" y="-187" type="line"/>
      <point x="500" y="71" type="line"/>
      <point x="447" y="71" type="line"/>
      <point x="421" y="0" type="line"/>
    </contour>
    <component base="afii10072"/>
  </outline>
</glyph>
<glyph name="uni04C6" format="2">
  <advance width="500"/>
  <unicode hex="04C6"/>
  <anchor x="250" y="-189" name="bottom"/>
  <anchor x="250" y="536" name="top"/>
  <outline>
    <contour>
      <point x="360" y="-187" type="line"/>
      <point x="442" y="-187" type="line"/>
      <point x="500" y="67" type="line"/>
      <point x="404" y="67" type="line"/>
      <point x="386" y="0" type="line"/>
      <point x="416" y="0" type="line"/>
    </contour>
    <component base="afii10077"/>
  </outline>
</glyph>
<glyph name="uni0529" format="2">
  <advance width="500"/>
  <unicode hex="0529"/>
  <anchor x="268" y="-240" name="bottom"/>
  <anchor x="250" y="536" name="top"/>
  <anchor x="480" y="0" name="bottomright"/>
  <outline>
    <contour>
      <point x="22" y="-240" type="curve" smooth="yes"/>
      <point x="98" y="-240"/>
      <point x="141" y="-185"/>
      <point x="141" y="-82" type="curve" smooth="yes"/>
      <point x="141" y="231" type="line"/>
      <point x="60" y="231" type="line"/>
      <point x="60" y="-83" type="line" smooth="yes"/>
      <point x="60" y="-140"/>
      <point x="43" y="-167"/>
      <point x="7" y="-167" type="curve" smooth="yes"/>
      <point x="-6" y="-167"/>
      <point x="-21" y="-164"/>
      <point x="-38" y="-159" type="curve"/>
      <point x="-38" y="-231" type="line"/>
      <point x="-24" y="-236"/>
      <point x="1" y="-240"/>
    </contour>
    <component base="afii10079"/>
  </outline>
</glyph>
<glyph name="uni052E" format="2">
  <advance width="500"/>
  <unicode hex="052E"/>
  <anchor x="268" y="-190" name="bottom"/>
  <anchor x="314" y="714" name="top"/>
  <outline>
    <contour>
      <point x="433" y="-190" type="line"/>
      <point x="513" y="-190" type="line"/>
      <point x="513" y="74" type="line"/>
      <point x="426" y="74" type="line"/>
      <point x="390" y="0" type="line"/>
      <point x="433" y="0" type="line"/>
    </contour>
    <component base="afii10029"/>
  </outline>
</glyph>
<glyph name="uni052F" format="2">
  <advance width="500"/>
  <unicode hex="052F"/>
  <anchor x="276" y="-187" name="bottom"/>
  <anchor x="293" y="536" name="top"/>
  <outline>
    <contour>
      <point x="423" y="-187" type="line"/>
      <point x="500" y="-187" type="line"/>
      <point x="500" y="69" type="line"/>
      <point x="414" y="69" type="line"/>
      <point x="414" y="0" type="line"/>
      <point x="423" y="0" type="line"/>
    </contour>
    <component base="afii10077"/>
  </outline>
</glyph>
<glyph name="uni1D8B" format="2">
  <advance width="500"/>
  <unicode hex="1D8B"/>
  <anchor x="147" y="-240" name="bottom"/>
  <anchor x="306" y="763" name="top"/>
  <outline>
    <contour>
      <point x="236" y="0" type="line"/>
      <point x="390" y="0" type="line"/>
      <point x="390" y="72" type="line"/>
      <point x="236" y="72" type="line"/>
    </contour>
    <component base="uni0283" xOffset="-30"/>
    <component base="cyrillicbighooklc" xOffset="130"/>
  </outline>
</glyph>
<glyph name="uni2E4D" format="2">
  <advance width="500"/>
  <unicode hex="2E4D"/>
  <anchor x="250" y="0" name="bottom"/>
  <anchor x="480" y="0" name="bottomright"/>
  <anchor x="277" y="714" name="top"/>
  <outline>
    <contour>
      <point x="150" y="430" type="line"/>
      <point x="377" y="658" type="line"/>
      <point x="340" y="694" type="line"/>
      <point x="113" y="467" type="line"/>
    </contour>
    <component base="afii10020"/>
  </outline>
</glyph>
<glyph name="uniA681" format="2">
  <advance width="500"/>
  <unicode hex="A681"/>
  <anchor x="251" y="-187" name="bottom"/>
  <anchor x="283" y="536" name="top"/>
  <outline>
    <contour>
      <point x="168" y="495" type="line"/>
      <point x="243" y="495" type="line"/>
      <point x="243" y="739" type="line"/>
      <point x="168" y="739" type="line"/>
    </contour>
    <component base="afii10069" xOffset="1"/>
  </outline>
</glyph>
<glyph name="uniA744" format="2">
  <advance width="500"/>
  <unicode hex="A744"/>
  <anchor x="259" y="0" name="bottom"/>
  <anchor x="250" y="714" name="top"/>
  <anchor x="480" y="714" name="topright"/>
  <outline>
    <contour>
      <point x="236" y="91" type="line"/>
      <point x="439" y="258" type="line"/>
      <point x="398" y="309" type="line"/>
      <point x="195" y="142" type="line"/>
    </contour>
    <component base="uniA740"/>
  </outline>
</glyph>
<glyph name="uniA745" format="2">
  <advance width="500"/>
  <unicode hex="A745"/>
  <anchor x="273" y="0" name="bottom"/>
  <anchor x="280" y="760" name="top"/>
  <anchor x="430" y="830" name="topright"/>
  <outline>
    <contour>
      <point x="237" y="56" type="line"/>
      <point x="427" y="218" type="line"/>
      <point x="381" y="270" type="line"/>
      <point x="193" y="108" type="line"/>
    </contour>
    <component base="uniA741"/>
  </outline>
</glyph>
<glyph name="uniA77C" format="2">
  <advance width="500"/>
  <unicode hex="A77C"/>
  <anchor x="250" y="-240" name="bottom"/>
  <anchor x="250" y="536" name="top"/>
  <outline>
    <contour>
      <point x="112" y="0" type="line"/>
      <point x="434" y="0" type="line"/>
      <point x="434" y="62" type="line"/>
      <point x="112" y="62" type="line"/>
    </contour>
    <component base="uniA785"/>
  </outline>
</glyph>
<glyph name="uniA793" format="2">
  <advance width="500"/>
  <unicode hex="A793"/>
  <anchor x="317" y="0" name="bottom"/>
  <anchor x="312" y="536" name="top"/>
  <anchor x="507" y="536" name="topright"/>
  <outline>
    <contour>
      <point x="33" y="247" type="line"/>
      <point x="331" y="247" type="line"/>
      <point x="331" y="312" type="line"/>
      <point x="33" y="312" type="line"/>
    </contour>
    <component base="c" xOffset="27"/>
  </outline>
</glyph>
<glyph name="uniA7A3" format="2">
  <advance width="500"/>
  <unicode hex="A7A3"/>
  <anchor x="273" y="0" name="bottom"/>
  <anchor x="280" y="760" name="top"/>
  <anchor x="430" y="830" name="topright"/>
  <outline>
    <contour>
      <point x="0" y="196" type="line"/>
      <point x="500" y="322" type="line"/>
      <point x="500" y="388" type="line"/>
      <point x="0" y="261" type="line"/>
    </contour>
    <component base="k"/>
  </outline>
</glyph>
<glyph name="uniA7AF" format="2">
  <advance width="500"/>
  <unicode hex="A7AF"/>
  <anchor x="250" y="0" name="bottom"/>
  <anchor x="250" y="286" name="center"/>
  <anchor x="244" y="10" name="ogonek"/>
  <anchor x="250" y="572" name="top"/>
  <anchor x="250" y="602" name="topleft"/>
  <anchor x="250" y="602" name="topright"/>
  <outline>
    <contour>
      <point x="328" y="33" type="line"/>
      <point x="257" y="17" type="line"/>
      <point x="340" y="-139" type="line"/>
      <point x="430" y="-139" type="line"/>
    </contour>
    <component base="o.sc"/>
  </outline>
</glyph>
<glyph name="uniA7B4" format="2">
  <advance width="500"/>
  <unicode hex="A7B4"/>
  <anchor x="250" y="0" name="bottom"/>
  <anchor x="250" y="714" name="top"/>
  <anchor x="480" y="714" name="topright"/>
  <outline>
    <contour>
      <point x="65" y="-240" type="line"/>
      <point x="145" y="-240" type="line"/>
      <point x="145" y="46" type="line"/>
      <point x="65" y="46" type="line"/>
    </contour>
    <component base="B"/>
  </outline>
</glyph>
<glyph name="uniA7C5" format="2">
  <advance width="500"/>
  <unicode hex="A7C5"/>
  <anchor x="250" y="0" name="bottom"/>
  <anchor x="260" y="714" name="top"/>
  <anchor x="480" y="714" name="topright"/>
  <outline>
    <contour>
      <point x="137" y="-203" type="curve" smooth="yes"/>
      <point x="159" y="-203"/>
      <point x="183" y="-198"/>
      <point x="195" y="-193" type="curve"/>
      <point x="195" y="-127" type="line"/>
      <point x="187" y="-129"/>
      <point x="172" y="-133"/>
      <point x="161" y="-133" type="curve" smooth="yes"/>
      <point x="142" y="-133"/>
      <point x="129" y="-122"/>
      <point x="129" y="-93" type="curve" smooth="yes"/>
      <point x="129" y="6" type="line"/>
      <point x="60" y="94" type="line"/>
      <point x="60" y="-120" type="line" smooth="yes"/>
      <point x="60" y="-175"/>
      <point x="90" y="-203"/>
    </contour>
    <component base="S"/>
  </outline>
</glyph>
<glyph name="uniA7C6" format="2">
  <advance width="500"/>
  <unicode hex="A7C6"/>
  <anchor x="271" y="0" name="bottom"/>
  <anchor x="261" y="714" name="top"/>
  <anchor x="480" y="714" name="topright"/>
  <outline>
    <contour>
      <point x="349" y="-203" type="curve" smooth="yes"/>
      <point x="413" y="-203"/>
      <point x="445" y="-165"/>
      <point x="445" y="-79" type="curve" smooth="yes"/>
      <point x="445" y="69" type="line"/>
      <point x="373" y="10" type="line"/>
      <point x="373" y="-75" type="line" smooth="yes"/>
      <point x="373" y="-120"/>
      <point x="359" y="-140"/>
      <point x="328" y="-140" type="curve" smooth="yes"/>
      <point x="316" y="-140"/>
      <point x="303" y="-137"/>
      <point x="289" y="-131" type="curve"/>
      <point x="289" y="-194" type="line"/>
      <point x="304" y="-200"/>
      <point x="324" y="-203"/>
    </contour>
    <component base="Z"/>
  </outline>
</glyph>
<glyph name="uniA7C7" format="2">
  <advance width="500"/>
  <unicode hex="A7C7"/>
  <anchor x="219" y="0" name="bottom"/>
  <anchor x="260" y="357" name="center"/>
  <anchor x="234" y="714" name="top"/>
  <anchor x="500" y="714" name="topright"/>
  <outline>
    <contour>
      <point x="97" y="333" type="line"/>
      <point x="432" y="333" type="line"/>
      <point x="432" y="402" type="line"/>
      <point x="97" y="402" type="line"/>
    </contour>
    <component base="D"/>
  </outline>
</glyph>
<glyph name="uniAB30" format="2">
  <advance width="500"/>
  <unicode hex="AB30"/>
  <anchor x="250" y="0" name="bottom"/>
  <anchor x="250" y="536" name="top"/>
  <outline>
    <contour>
      <point x="0" y="244" type="line"/>
      <point x="490" y="244" type="line"/>
      <point x="490" y="309" type="line"/>
      <point x="0" y="309" type="line"/>
    </contour>
    <component base="uni0251"/>
  </outline>
</glyph>
<glyph name="uniAB60" format="2">
  <advance width="661"/>
  <unicode hex="AB60"/>
  <anchor x="253" y="0" name="bottom"/>
  <anchor x="480" y="0" name="bottomright"/>
  <anchor x="253" y="536" name="top"/>
  <outline>
    <contour>
      <point x="359" y="0" type="line"/>
      <point x="478" y="0" type="line" smooth="yes"/>
      <point x="589" y="0"/>
      <point x="651" y="55"/>
      <point x="651" y="159" type="curve" smooth="yes"/>
      <point x="651" y="262"/>
      <point x="590" y="315"/>
      <point x="474" y="315" type="curve" smooth="yes"/>
      <point x="440" y="315" type="line"/>
      <point x="440" y="537" type="line"/>
      <point x="359" y="537" type="line"/>
    </contour>
    <contour>
      <point x="475" y="65" type="curve" smooth="yes"/>
      <point x="439" y="65" type="line"/>
      <point x="439" y="250" type="line"/>
      <point x="475" y="250" type="line" smooth="yes"/>
      <point x="539" y="250"/>
      <point x="569" y="218"/>
      <point x="569" y="156" type="curve" smooth="yes"/>
      <point x="569" y="96"/>
      <point x="537" y="65"/>
    </contour>
    <component base="afii10081"/>
  </outline>
</glyph>
<glyph name="q.sc" format="2">
  <advance width="500"/>
  <anchor x="250" y="-136" name="bottom"/>
  <anchor x="250" y="572" name="top"/>
  <anchor x="480" y="572" name="topright"/>
  <anchor x="250" y="286" name="center"/>
  <anchor x="244" y="10" name="ogonek"/>
  <anchor x="250" y="602" name="topleft"/>
  <outline>
    <contour>
      <point x="376" y="-136" type="line"/>
      <point x="484" y="-136" type="line"/>
      <point x="361" y="21" type="line"/>
      <point x="282" y="-5" type="line"/>
    </contour>
    <component base="o.sc"/>
  </outline>
</glyph>
